<svg version="1.1" preserveAspectRatio="xMinYMin meet" viewBox="0 0 1342 100" id="headerbackground" xmlns="http://www.w3.org/2000/svg" xmlns:xlink="http://www.w3.org/1999/xlink" width="1342" height="100">
	<rect x="0" y="0" width="1342px" height="100px" style="stroke: none; fill: #494949;" />
	<polygon points="0,0 1277,0 1047,0 0,100 0,0" style="stroke: none; fill: #4d4d4d;" />
	<polygon points="0,0 1060,0 820,100 0,100, 0,0" style="stroke: none; fill: #585858;" />
	<polygon points="763,0 869,0 537,66 763,0" style="stroke: none; fill: #4d4d4d;" />
	<polygon points="630,0 763,0 522,69 630,0" style="stroke: none; fill: #535353;" />
	<polygon points="529,0 621,0 522,69 529,0" style="stroke: none; fill: #535353;" />
	<polygon points="472,0 502,0 517,71 472,0" style="stroke: none; fill: #454545;" />
	<polygon points="459,0 472,0 517,71 459,0" style="stroke: none; fill: #4d4d4d;" />
	<polygon points="446,0 454,0 517,71 446,0" style="stroke: none; fill: #4d4d4d;" />
	<polygon points="117,0 383,0 502,72 117,0" style="stroke: none; fill: #535353;" />
</svg>