<?xml version="1.0" encoding="UTF-8" standalone="no"?>
<svg
   xmlns:dc="http://purl.org/dc/elements/1.1/"
   xmlns:cc="http://creativecommons.org/ns#"
   xmlns:rdf="http://www.w3.org/1999/02/22-rdf-syntax-ns#"
   xmlns:svg="http://www.w3.org/2000/svg"
   xmlns="http://www.w3.org/2000/svg"
   xmlns:sodipodi="http://sodipodi.sourceforge.net/DTD/sodipodi-0.dtd"
   xmlns:inkscape="http://www.inkscape.org/namespaces/inkscape"
   version="1.1"
   preserveAspectRatio="xMinYMin meet"
   viewBox="0 0 180 16"
   id="arrislogo"
   width="180"
   height="16"
   inkscape:version="0.48.5 r10040"
   sodipodi:docname="arris_logo_180x16.svgz">
  <metadata
     id="metadata3049">
    <rdf:RDF>
      <cc:Work
         rdf:about="">
        <dc:format>image/svg+xml</dc:format>
        <dc:type
           rdf:resource="http://purl.org/dc/dcmitype/StillImage" />
        <dc:title></dc:title>
      </cc:Work>
    </rdf:RDF>
  </metadata>
  <defs
     id="defs3047" />
  <sodipodi:namedview
     pagecolor="#ffffff"
     bordercolor="#666666"
     borderopacity="1"
     objecttolerance="10"
     gridtolerance="10"
     guidetolerance="10"
     inkscape:pageopacity="0"
     inkscape:pageshadow="2"
     inkscape:window-width="1364"
     inkscape:window-height="716"
     id="namedview3045"
     showgrid="false"
     inkscape:zoom="1.6856283"
     inkscape:cx="306"
     inkscape:cy="111.23971"
     inkscape:window-x="-8"
     inkscape:window-y="-8"
     inkscape:window-maximized="1"
     inkscape:current-layer="arrislogo" />
  <g
     id="g3019"
     transform="matrix(0.33915416,0,0,0.33915416,-13.758773,-127.03216)">
    <path
       d="m 305.2,376.8 -24.9,36.7 c 0,0 9.9,-1.1 14.7,-7.9 l 1.8,-2.7 h 20.7 l 2.9,4.5 c 2.9,4.6 14.8,6.1 14.8,6.1 L 310,376.8 c -0.1,0 -4.8,0 -4.8,0 z m -4.7,20.7 7.1,-10.3 6.6,10.3 h -13.7 z"
       id="path3021"
       inkscape:connector-curvature="0"
       style="fill:#ffffff" />
    <path
       d="m 395.2,393.6 c 2,-1.8 3.1,-3.7 3.1,-5.8 0,-7.1 -7.3,-10.4 -22.1,-10.4 -2.3,0 -14.7,0 -15.3,0 v 36.3 h 9.9 v -15.2 c 2.8,0.1 5,0.1 6.6,0.1 l 9.2,9 c 4.8,5.7 18.2,5.8 18.2,5.8 l -17.2,-16.3 c 3.1,-0.6 5.6,-1.7 7.6,-3.5 z m -10.6,-1.5 c -2,0.7 -5.1,1.2 -9.5,1.2 -1,0 -2.4,-0.1 -4.4,-0.1 v -9.8 h 10.9 c 4.7,0 5.8,2.5 5.8,4.4 0.2,2 -0.8,3.5 -2.8,4.3 z"
       id="path3023"
       inkscape:connector-curvature="0"
       style="fill:#ffffff" />
    <path
       d="m 465.7,393.6 c 2,-1.8 3.1,-3.7 3.1,-5.8 0,-7.1 -7.3,-10.4 -22.1,-10.4 -2.3,0 -14.7,0 -15.3,0 v 36.3 h 9.9 v -15.2 c 2.8,0.1 5,0.1 6.6,0.1 l 9.2,9 c 4.8,5.7 18.2,5.8 18.2,5.8 L 458,397.3 c 3,-0.8 5.7,-1.9 7.7,-3.7 z M 455,392.1 c -2,0.7 -5.1,1.2 -9.5,1.2 -1,0 -2.4,-0.1 -4.4,-0.1 v -9.8 H 452 c 4.7,0 5.8,2.5 5.8,4.4 0.1,2 -0.8,3.5 -2.8,4.3 z"
       id="path3025"
       inkscape:connector-curvature="0"
       style="fill:#ffffff" />
    <rect
       x="500.29999"
       y="377.20001"
       width="10.3"
       height="36.099998"
       id="rect3027"
       style="fill:#ffffff" />
    <path
       d="m 569.9,399.5 c -0.9,-1.4 -2.2,-2.6 -3.9,-3.5 -1.7,-0.9 -4.6,-2.1 -8.4,-3.3 -7.3,-2.2 -11,-4.4 -11,-6.5 0,-1.3 0.6,-2.2 1.9,-3.1 1.3,-0.7 3.2,-1.2 5.5,-1.2 3,0 5.8,0.5 8.7,1.4 2.8,0.8 5.8,-4.5 5.8,-4.5 -3.2,-1.6 -8.1,-2.3 -14.8,-2.3 -5.2,0 -9.3,1 -12.6,2.8 -3.3,1.8 -4.9,4.1 -4.9,7 0,1.5 0.4,2.9 1.3,4.1 0.8,1.3 2,2.3 3.6,3.2 1.6,0.9 4.6,2 9,3.4 4.5,1.4 7.3,2.7 8.8,3.8 1.4,1.2 2.1,2.3 2.1,3.6 0,2.7 -3,3.9 -9,3.9 -2.8,0 -5.5,-0.5 -8.4,-1.3 -4,-1.1 -7.4,4.4 -7.4,4.4 4.4,1.7 9.2,2.7 14.7,2.7 6.3,0 11.2,-1 14.9,-2.9 3.7,-1.9 5.5,-4.4 5.5,-7.2 0,-1.6 -0.4,-3.1 -1.4,-4.5 z"
       id="path3029"
       inkscape:connector-curvature="0"
       style="fill:#ffffff" />
  </g>
  <g
     id="g3031"
     transform="matrix(0.33915416,0,0,0.33915416,-13.758773,-127.03216)">
    <path
       d="m 188.9,403.8 -0.3,0.1 c 0,0 -9.4,3.5 -8.3,15.7 l 26.5,-14 c -5.5,-2.2 -11.8,-3.4 -17.9,-1.8 z"
       id="path3033"
       inkscape:connector-curvature="0"
       style="fill:#f02534" />
    <path
       d="m 188.9,403.8 c 6.1,-1.6 12.4,-0.3 17.9,1.8 7.6,3 13.3,7.5 13.3,7.5 10.2,-19.6 44.1,-35.5 44.1,-35.5 v -0.1 l -75.3,26.3 c 0,-0.1 -0.2,0.1 -0.4,0.1 l 0.4,-0.1 z"
       id="path3035"
       inkscape:connector-curvature="0"
       style="fill:#ffffff" />
    <g
       id="g3037">
      <g
         id="g3039">
        <g
           id="g3041">
          <path
             d="m 112.1,376.6 h 153.5 c 0.7,0 0.4,0.2 0.3,0.3 h -0.2 L 42.3,421.7 c -0.3,0 -1.5,0.2 -1.7,-0.4 -0.2,-0.7 0.6,-1 0.6,-1 l 97.2,-24.1 c 2.7,-0.9 7.9,-2.1 8.6,-5.7 0.4,-3.5 -5.2,-6.4 -12.3,-8.6 -10.1,-3.2 -22.7,-5.3 -22.6,-5.3"
             id="path3043"
             inkscape:connector-curvature="0"
             style="fill:#ffffff" />
        </g>
      </g>
    </g>
  </g>
</svg>
